<?xml version="1.0" standalone="no"?>
<!DOCTYPE svg PUBLIC "-//W3C//DTD SVG 20010904//EN"
 "http://www.w3.org/TR/2001/REC-SVG-20010904/DTD/svg10.dtd">
<svg version="1.0" xmlns="http://www.w3.org/2000/svg"
 width="591.000000pt" height="501.000000pt" viewBox="0 0 591.000000 501.000000"
 preserveAspectRatio="xMidYMid meet">
<metadata>
Created by potrace 1.10, written by Peter Selinger 2001-2011
</metadata>
<g transform="translate(0.000000,501.000000) scale(0.100000,-0.100000)"
fill="#000000" stroke="none">
<path d="M765 4969 c-33 -4 -84 -14 -113 -23 -57 -16 -207 -89 -233 -112 -8
-8 -19 -14 -22 -14 -9 0 -47 -32 -120 -100 -127 -117 -227 -299 -260 -470 -7
-37 -12 -611 -14 -1715 -4 -1694 -3 -1780 33 -1863 8 -18 14 -40 14 -50 1 -29
84 -186 132 -248 156 -202 357 -322 603 -360 74 -11 453 -13 2160 -13 2219 0
2197 -1 2325 49 30 12 64 24 75 27 11 3 27 11 35 17 8 6 33 20 55 31 54 26
150 100 204 155 57 59 111 125 111 135 0 5 6 16 14 24 18 20 76 136 76 151 0
7 6 26 14 43 8 18 17 49 21 70 3 21 13 41 21 44 21 8 21 3483 0 3483 -9 0 -18
19 -24 53 -28 147 -129 328 -247 440 -49 46 -111 97 -120 97 -5 0 -16 6 -24
14 -27 24 -177 96 -233 112 -29 8 -80 19 -113 24 -71 11 -4278 11 -4370 -1z
m210 -1036 c4 -16 13 -43 21 -61 8 -18 14 -38 14 -45 0 -7 -30 -42 -66 -77
-71 -70 -153 -187 -204 -290 -17 -36 -38 -78 -46 -93 -8 -16 -14 -35 -14 -42
0 -7 -6 -26 -14 -42 -8 -15 -22 -55 -31 -88 -9 -33 -23 -81 -31 -106 -8 -26
-14 -57 -14 -70 0 -13 -7 -58 -16 -99 -22 -98 -24 -621 -4 -715 7 -33 16 -85
21 -115 8 -57 23 -124 41 -175 5 -16 13 -43 18 -60 5 -16 14 -46 21 -65 6 -19
14 -39 15 -45 2 -5 8 -17 13 -25 5 -8 25 -49 45 -90 21 -41 45 -87 54 -102 57
-90 101 -146 155 -199 60 -60 61 -61 48 -92 -7 -18 -16 -45 -20 -61 -12 -54
-32 -54 -102 -1 -120 91 -229 219 -324 377 -36 60 -115 223 -115 237 0 9 -5
22 -11 28 -6 6 -14 26 -19 44 -4 19 -13 48 -18 64 -35 101 -67 253 -80 375
-21 201 -10 500 24 643 8 32 14 68 14 79 0 11 7 41 15 67 8 25 24 73 34 106
19 58 27 82 56 150 93 222 260 450 413 566 75 56 99 61 107 22z m4010 2 c63
-37 285 -270 285 -299 0 -2 17 -31 38 -63 21 -32 48 -76 59 -98 63 -123 83
-167 83 -183 0 -10 5 -23 11 -29 6 -6 14 -26 19 -44 5 -19 19 -65 30 -104 48
-157 81 -430 75 -615 -4 -133 -22 -310 -34 -343 -6 -16 -11 -40 -11 -55 0 -15
-6 -47 -14 -72 -8 -25 -22 -72 -31 -105 -10 -33 -24 -75 -31 -92 -8 -18 -20
-48 -28 -65 -22 -54 -86 -181 -106 -213 -11 -16 -23 -37 -27 -45 -12 -28 -127
-174 -178 -229 -70 -75 -171 -153 -192 -149 -10 2 -20 14 -21 28 -2 13 -10 33
-18 44 -26 38 -17 69 37 121 48 47 147 172 162 205 4 8 18 33 32 55 13 22 24
47 25 56 0 8 5 20 12 27 12 12 36 71 45 112 3 14 12 34 19 45 8 11 14 28 14
39 0 11 6 38 14 61 21 63 38 135 47 200 4 33 12 87 18 120 6 33 11 166 11 295
0 279 -18 428 -75 611 -8 26 -15 55 -15 66 0 11 -7 28 -15 39 -8 10 -15 28
-15 39 0 11 -7 29 -15 39 -8 11 -15 30 -15 42 0 12 -7 27 -15 34 -8 7 -15 20
-15 30 0 10 -7 23 -15 30 -8 7 -15 21 -15 31 0 10 -5 21 -11 24 -5 4 -14 17
-20 28 -22 51 -101 157 -163 217 -50 48 -55 69 -32 122 8 18 17 41 20 51 7 23
20 22 71 -8z m-3230 -226 c4 -6 6 -109 6 -230 l-2 -219 24 0 c14 0 30 6 36 14
6 8 24 16 39 19 33 6 110 33 134 47 10 6 25 10 33 10 9 0 26 6 38 14 12 8 37
17 54 21 30 6 34 4 46 -27 23 -53 39 -101 44 -129 6 -32 -26 -59 -69 -59 -15
0 -42 -6 -60 -14 -18 -8 -60 -22 -93 -32 -115 -33 -161 -49 -165 -57 -5 -10
21 -50 153 -228 48 -66 87 -125 87 -132 -1 -13 -123 -107 -150 -114 -12 -3
-26 9 -46 43 -16 25 -37 58 -46 73 -10 14 -21 33 -25 41 -3 8 -18 31 -33 50
-15 19 -29 40 -31 45 -14 33 -73 114 -81 109 -8 -5 -55 -74 -68 -99 -3 -5 -23
-37 -44 -70 -21 -33 -57 -88 -79 -122 -22 -35 -46 -63 -54 -63 -20 0 -153 102
-153 119 0 7 18 37 41 65 104 132 199 267 199 284 0 12 -10 23 -27 29 -77 27
-133 43 -150 43 -10 0 -23 4 -29 10 -5 5 -30 14 -54 19 -72 15 -125 38 -121
53 2 7 11 38 18 68 8 30 19 59 24 65 5 5 9 17 9 26 0 26 17 32 42 15 12 -9 32
-16 43 -16 12 0 30 -7 41 -15 10 -8 26 -15 34 -15 8 0 28 -7 44 -15 15 -8 36
-15 45 -15 9 0 25 -7 35 -15 11 -8 27 -15 37 -15 9 0 29 -7 45 -15 42 -22 57
-4 50 59 -3 28 -9 122 -12 210 -5 127 -3 160 8 167 19 13 176 11 183 -2z
m2564 2 c12 -8 12 -111 -3 -416 -1 -36 20 -43 66 -21 17 9 38 16 45 16 8 0 27
6 41 14 52 26 103 46 120 46 10 0 27 6 38 14 11 8 38 16 59 18 33 2 40 0 43
-17 1 -11 9 -36 16 -55 34 -90 35 -98 15 -116 -10 -9 -35 -20 -56 -24 -21 -5
-51 -13 -68 -18 -16 -6 -57 -18 -90 -28 -33 -9 -80 -24 -105 -32 -25 -8 -51
-16 -59 -18 -11 -4 -11 -8 3 -22 9 -10 16 -22 16 -26 0 -4 47 -68 103 -144 57
-75 109 -146 115 -157 9 -19 4 -26 -45 -65 -93 -75 -98 -77 -122 -56 -12 11
-21 23 -21 27 0 4 -20 37 -45 73 -25 37 -45 69 -45 72 0 3 -13 23 -30 44 -16
21 -30 41 -30 45 0 11 -61 85 -70 85 -5 0 -26 -28 -46 -62 -21 -35 -57 -90
-79 -123 -23 -34 -44 -67 -48 -75 -18 -37 -44 -74 -59 -84 -13 -8 -28 -2 -70
27 -102 71 -102 71 -88 97 13 25 172 244 216 298 37 45 25 62 -57 85 -35 9
-86 24 -114 33 -27 8 -61 17 -75 20 -14 3 -34 10 -45 15 -11 5 -32 13 -47 18
-25 9 -27 14 -21 43 3 18 12 44 20 58 7 14 13 35 13 47 0 12 3 28 6 37 7 18
49 22 59 6 3 -5 15 -10 25 -10 17 0 35 -6 115 -42 11 -4 34 -12 50 -17 17 -5
55 -19 85 -31 30 -11 60 -22 65 -23 6 -1 11 76 13 213 1 118 4 221 7 228 5 14
161 17 184 3z m-2636 -1595 c52 -55 145 -135 172 -147 11 -5 34 -18 50 -29 32
-20 100 -54 153 -76 17 -8 47 -20 65 -28 17 -8 41 -16 52 -19 11 -3 34 -10 50
-16 359 -122 929 -133 1274 -25 25 8 52 14 60 14 9 0 29 7 45 15 15 8 35 15
42 15 17 0 193 80 249 113 57 33 161 101 170 111 6 6 36 35 68 64 61 57 61 57
137 27 19 -7 43 -16 54 -19 17 -6 18 -8 2 -24 -9 -10 -16 -22 -16 -26 0 -28
-147 -175 -260 -261 -52 -39 -102 -74 -110 -78 -8 -4 -28 -16 -45 -27 -16 -10
-64 -35 -105 -55 -41 -20 -88 -43 -103 -51 -16 -8 -36 -14 -45 -14 -9 0 -26
-7 -36 -15 -11 -8 -31 -15 -44 -15 -13 0 -33 -5 -45 -12 -12 -6 -40 -15 -62
-19 -22 -4 -58 -12 -80 -18 -137 -34 -219 -41 -461 -41 -182 0 -273 4 -339 16
-166 29 -318 71 -430 119 -16 7 -50 21 -75 31 -25 10 -52 23 -60 29 -8 7 -23
15 -33 18 -48 17 -251 166 -322 235 -94 93 -135 137 -135 148 0 4 -7 15 -16
25 -18 20 -11 39 15 39 10 0 24 6 31 14 10 13 29 19 78 25 7 0 32 -19 55 -43z"/>
</g>
</svg>
