<svg width="59" height="32" viewBox="0 0 59 32" fill="none" xmlns="http://www.w3.org/2000/svg">
<path d="M0.948242 16.3428C0.948242 14.1357 1.24121 12.0166 1.82715 9.98535C2.42285 7.9541 3.30664 6.1084 4.47852 4.44824C5.65039 2.78809 6.86621 1.61621 8.12598 0.932617L8.68262 2.71973C7.25684 3.81348 6.08496 5.4834 5.16699 7.72949C4.25879 9.97559 3.76074 12.4902 3.67285 15.2734L3.6582 16.5186C3.6582 20.2881 4.34668 23.5596 5.72363 26.333C6.55371 27.9932 7.54004 29.292 8.68262 30.2295L8.12598 31.8848C6.82715 31.1621 5.58691 29.9512 4.40527 28.252C2.10059 24.9316 0.948242 20.9619 0.948242 16.3428ZM14.0879 10.6006L9.66406 9.28223L10.3379 7.07031L14.7617 8.71094L14.6299 3.67188H16.8711L16.7246 8.78418L21.0752 7.17285L21.749 9.39941L17.252 10.7324L20.1523 14.7021L18.3359 16.0791L15.6113 11.8604L12.9746 15.9766L11.1436 14.6436L14.0879 10.6006ZM41.8906 10.6006L37.4668 9.28223L38.1406 7.07031L42.5645 8.71094L42.4326 3.67188H44.6738L44.5273 8.78418L48.8779 7.17285L49.5518 9.39941L45.0547 10.7324L47.9551 14.7021L46.1387 16.0791L43.4141 11.8604L40.7773 15.9766L38.9463 14.6436L41.8906 10.6006ZM58.2822 16.4893C58.2822 18.667 57.9941 20.7568 57.418 22.7588C56.8516 24.751 55.9775 26.5918 54.7959 28.2812C53.624 29.9707 52.3936 31.1719 51.1045 31.8848L50.5332 30.2295C52.0371 29.0771 53.2432 27.29 54.1514 24.8682C55.0693 22.4365 55.5381 19.7412 55.5576 16.7822V16.3135C55.5576 14.2627 55.3428 12.3584 54.9131 10.6006C54.4834 8.83301 53.8828 7.25098 53.1113 5.85449C52.3496 4.45801 51.4902 3.36914 50.5332 2.58789L51.1045 0.932617C52.3936 1.64551 53.6191 2.83691 54.7812 4.50684C55.9531 6.17676 56.8271 8.01758 57.4033 10.0293C57.9893 12.041 58.2822 14.1943 58.2822 16.4893Z" fill="black"/>
<path d="M29.5107 28.3057C27.333 28.3057 25.2432 28.0176 23.2412 27.4414C21.249 26.875 19.4082 26.001 17.7188 24.8193C16.0293 23.6475 14.8281 22.417 14.1152 21.1279L15.7705 20.5566C16.9229 22.0605 18.71 23.2666 21.1318 24.1748C23.5635 25.0928 26.2588 25.5615 29.2178 25.5811H29.6865C31.7373 25.5811 33.6416 25.3662 35.3994 24.9365C37.167 24.5068 38.749 23.9062 40.1455 23.1348C41.542 22.373 42.6309 21.5137 43.4121 20.5566L45.0674 21.1279C44.3545 22.417 43.1631 23.6426 41.4932 24.8047C39.8232 25.9766 37.9824 26.8506 35.9707 27.4268C33.959 28.0127 31.8057 28.3057 29.5107 28.3057Z" fill="black"/>
</svg>
