<?xml version="1.0" standalone="no"?>
<!DOCTYPE svg PUBLIC "-//W3C//DTD SVG 20010904//EN"
 "http://www.w3.org/TR/2001/REC-SVG-20010904/DTD/svg10.dtd">
<svg version="1.0" xmlns="http://www.w3.org/2000/svg"
 width="594.000000pt" height="501.000000pt" viewBox="0 0 594.000000 501.000000"
 preserveAspectRatio="xMidYMid meet">
<metadata>
Created by potrace 1.10, written by Peter Selinger 2001-2011
</metadata>
<g transform="translate(0.000000,501.000000) scale(0.100000,-0.100000)"
fill="#000000" stroke="none">
<path d="M750 4958 c-19 -5 -51 -13 -70 -18 -75 -18 -173 -65 -268 -127 -117
-76 -270 -257 -316 -373 -10 -25 -23 -54 -28 -65 -20 -36 -40 -130 -49 -230
-6 -59 -9 -760 -7 -1745 3 -1566 4 -1648 21 -1700 11 -30 25 -70 33 -88 8 -18
14 -39 14 -46 0 -7 11 -33 25 -57 14 -24 28 -51 32 -59 15 -33 123 -168 169
-210 121 -113 285 -196 452 -229 37 -8 719 -11 2200 -11 1807 0 2159 3 2222
15 86 16 136 33 205 69 26 14 52 26 57 26 18 0 197 140 233 183 75 86 141 196
177 292 36 94 41 115 52 210 8 67 16 99 24 97 9 -1 12 371 12 1593 0 1239 -3
1594 -12 1592 -8 -1 -16 30 -23 98 -7 55 -17 110 -23 122 -7 12 -12 29 -12 38
0 16 -22 73 -40 105 -5 8 -19 35 -31 60 -43 86 -150 212 -246 288 -23 17 -44
32 -49 32 -4 0 -15 6 -23 14 -20 17 -130 76 -143 76 -6 0 -24 6 -41 14 -18 7
-62 20 -99 30 -61 15 -252 16 -2240 15 -1339 -1 -2186 -5 -2208 -11z m2868
-901 c2 -9 -4 -27 -12 -39 -9 -12 -16 -32 -16 -43 0 -12 -7 -30 -15 -41 -8
-10 -15 -27 -15 -37 0 -11 -6 -31 -14 -45 -8 -15 -21 -46 -30 -69 -9 -24 -23
-62 -32 -85 -9 -24 -22 -55 -30 -70 -8 -14 -14 -35 -14 -45 0 -11 -7 -28 -15
-39 -8 -10 -15 -27 -15 -37 0 -11 -6 -31 -14 -45 -13 -25 -27 -59 -63 -157 -8
-22 -21 -52 -29 -67 -8 -14 -14 -35 -14 -45 0 -11 -7 -28 -15 -39 -8 -10 -15
-28 -15 -40 0 -11 -7 -29 -15 -40 -8 -10 -15 -25 -15 -32 0 -8 -6 -28 -14 -45
-7 -18 -20 -50 -29 -72 -8 -22 -23 -60 -32 -85 -9 -25 -24 -63 -32 -85 -8 -22
-21 -53 -28 -70 -14 -33 -39 -98 -61 -157 -8 -21 -21 -57 -30 -80 -9 -24 -23
-61 -31 -83 -8 -22 -21 -52 -29 -67 -8 -14 -14 -33 -14 -41 0 -9 -6 -28 -14
-44 -8 -15 -22 -48 -31 -73 -22 -57 -43 -114 -62 -165 -8 -22 -21 -52 -29 -67
-8 -14 -14 -33 -14 -41 0 -9 -6 -28 -14 -44 -8 -15 -22 -47 -30 -70 -9 -24
-23 -62 -32 -85 -9 -24 -23 -61 -31 -83 -8 -22 -21 -53 -29 -68 -8 -16 -14
-35 -14 -42 0 -7 -6 -26 -14 -42 -27 -54 -46 -104 -46 -119 0 -9 -6 -28 -14
-42 -13 -25 -27 -59 -63 -157 -8 -22 -21 -52 -29 -67 -8 -14 -14 -34 -14 -44
0 -9 -7 -26 -17 -36 -14 -16 -33 -18 -165 -18 -161 0 -162 0 -134 57 8 15 22
47 30 71 9 23 23 61 32 85 9 23 23 60 31 82 8 22 21 52 29 67 8 14 14 33 14
41 0 9 6 28 14 44 8 15 21 46 29 68 52 142 78 208 93 237 8 14 14 33 14 41 0
9 6 28 14 44 8 15 22 47 30 71 9 23 23 61 32 85 9 23 23 60 31 82 8 22 21 52
29 67 8 14 14 33 14 41 0 9 6 28 14 44 8 15 22 48 31 73 22 57 43 114 62 165
8 22 21 52 29 67 8 14 14 33 14 41 0 9 6 28 14 44 8 15 22 47 30 71 9 23 22
59 30 80 37 99 49 129 62 155 8 16 14 35 14 42 0 7 6 26 14 42 8 15 21 46 29
68 8 22 22 59 31 83 9 23 23 61 32 85 9 23 22 54 30 69 8 14 14 33 14 41 0 9
6 28 14 44 13 26 25 56 62 156 35 93 47 124 60 149 8 14 14 35 14 46 0 12 4
23 10 27 5 3 14 20 19 38 5 18 19 57 31 87 39 101 51 135 61 167 16 53 32 58
185 57 120 -1 139 -4 142 -17z m471 -718 c25 -12 73 -34 106 -50 33 -16 63
-29 68 -29 8 0 94 -39 202 -91 33 -16 65 -29 70 -29 6 0 37 -13 70 -29 108
-52 194 -91 202 -91 5 0 35 -13 68 -29 107 -52 194 -91 202 -91 4 0 35 -13 68
-29 148 -70 195 -91 204 -91 5 0 22 -7 38 -14 15 -8 35 -17 43 -20 8 -3 22
-10 30 -14 8 -5 31 -16 50 -24 126 -54 181 -82 188 -93 4 -5 7 -70 8 -142 l2
-133 -33 -20 c-18 -11 -39 -20 -47 -20 -9 0 -21 -7 -28 -15 -7 -8 -19 -15 -26
-15 -13 0 -112 -43 -176 -76 -14 -8 -33 -14 -41 -14 -8 0 -20 -7 -27 -15 -7
-8 -20 -15 -29 -15 -14 0 -84 -31 -173 -76 -14 -8 -33 -14 -41 -14 -8 0 -20
-7 -27 -15 -7 -8 -20 -15 -29 -15 -14 0 -84 -31 -173 -76 -14 -8 -33 -14 -41
-14 -8 0 -20 -7 -27 -15 -7 -8 -20 -15 -29 -15 -14 0 -92 -34 -174 -76 -16 -8
-34 -14 -42 -14 -7 0 -18 -7 -25 -15 -7 -8 -20 -15 -29 -15 -14 0 -63 -21
-174 -76 -16 -8 -34 -14 -42 -14 -7 0 -18 -7 -25 -15 -7 -8 -20 -15 -30 -15
-9 0 -42 -13 -73 -30 -31 -16 -65 -30 -75 -30 -10 0 -23 -5 -30 -12 -27 -27
-32 9 -30 188 3 175 3 179 25 182 12 2 27 10 33 18 7 8 22 14 34 14 12 0 31 7
42 15 10 8 27 15 36 15 9 0 29 6 45 14 15 8 46 21 68 29 22 8 76 29 120 47 44
18 113 45 153 61 75 30 169 68 300 120 42 17 95 38 117 46 22 8 53 21 68 29
16 8 33 14 39 14 9 0 39 12 113 45 17 7 43 16 58 20 37 8 35 48 -3 53 -13 2
-33 10 -44 18 -11 8 -30 14 -41 14 -12 0 -30 7 -41 15 -10 8 -27 15 -37 15
-11 0 -31 6 -45 14 -15 8 -47 21 -72 31 -25 9 -58 23 -75 30 -16 7 -49 20 -72
29 -24 9 -62 23 -85 32 -24 9 -56 22 -73 29 -16 7 -50 21 -75 30 -25 10 -57
23 -72 31 -14 8 -34 14 -43 14 -9 0 -29 6 -43 14 -26 13 -66 29 -157 63 -22 8
-53 21 -70 28 -16 7 -50 20 -75 30 -25 9 -64 26 -87 37 l-43 19 0 173 c0 95 3
176 7 179 10 11 23 8 72 -14z m-2313 -164 c1 -134 -2 -175 -14 -192 -8 -13
-20 -23 -27 -23 -7 0 -43 -13 -80 -30 -37 -16 -71 -30 -76 -30 -6 0 -37 -13
-71 -30 -33 -16 -68 -30 -78 -30 -10 0 -23 -7 -30 -15 -7 -8 -21 -15 -30 -15
-10 0 -31 -6 -47 -14 -39 -19 -85 -38 -178 -76 -95 -38 -140 -57 -177 -76 -14
-8 -35 -14 -46 -14 -11 0 -25 -7 -32 -15 -7 -8 -21 -15 -32 -15 -11 0 -32 -6
-46 -13 -33 -17 -73 -35 -175 -77 -42 -18 -77 -39 -77 -46 0 -8 7 -14 15 -14
8 0 31 -7 52 -16 21 -9 54 -24 73 -32 50 -22 89 -38 140 -57 25 -10 59 -23 75
-30 17 -7 50 -21 75 -30 25 -10 59 -23 75 -30 17 -7 50 -21 75 -30 55 -21 105
-43 143 -61 16 -8 35 -14 42 -14 7 0 26 -6 42 -14 38 -18 88 -40 143 -61 25
-9 59 -23 75 -30 17 -7 50 -20 75 -30 25 -9 61 -25 80 -35 l35 -18 1 -171 c1
-118 -3 -176 -11 -187 -10 -15 -21 -12 -101 26 -146 69 -277 131 -309 145 -16
7 -59 26 -95 43 -36 17 -72 33 -80 36 -8 3 -22 10 -30 15 -15 8 -124 59 -185
86 -50 22 -224 104 -320 151 -50 24 -95 44 -100 44 -9 0 -86 36 -295 139 l-95
47 -2 114 c-2 174 -9 161 115 220 59 28 119 58 134 66 14 8 33 14 41 14 8 0
20 7 27 15 7 8 20 15 30 15 10 0 23 7 30 15 7 8 20 15 29 15 14 0 153 63 233
106 14 8 33 14 41 14 8 0 20 7 27 15 7 8 20 15 30 15 10 0 23 7 30 15 7 8 20
15 29 15 14 0 153 63 233 106 14 8 33 14 41 14 8 0 20 7 27 15 7 8 20 15 30
15 10 0 23 7 30 15 7 8 20 15 29 15 14 0 153 63 233 106 14 8 33 14 41 14 8 0
20 7 27 15 7 8 20 15 30 15 10 0 23 7 30 16 8 9 25 14 44 12 l31 -3 1 -170z"/>
</g>
</svg>
