<?xml version="1.0" standalone="no"?>
<!DOCTYPE svg PUBLIC "-//W3C//DTD SVG 20010904//EN"
 "http://www.w3.org/TR/2001/REC-SVG-20010904/DTD/svg10.dtd">
<svg version="1.0" xmlns="http://www.w3.org/2000/svg"
 width="900.000000pt" height="762.000000pt" viewBox="0 0 900.000000 762.000000"
 preserveAspectRatio="xMidYMid meet">
<metadata>
Created by potrace 1.10, written by Peter Selinger 2001-2011
</metadata>
<g transform="translate(0.000000,762.000000) scale(0.100000,-0.100000)"
fill="#000000" stroke="none">
<path d="M1235 7580 c-412 -44 -812 -304 -1030 -670 -110 -186 -164 -349 -190
-570 -22 -187 -22 -4907 0 -5080 30 -237 75 -375 184 -558 207 -349 525 -573
946 -669 76 -17 229 -18 3355 -18 l3275 0 95 22 c327 76 596 237 798 478 55
66 158 227 195 307 40 86 92 250 102 321 4 31 11 47 21 47 12 0 14 346 14
2610 0 2264 -2 2610 -14 2610 -10 0 -17 16 -21 48 -4 26 -22 97 -40 157 -108
348 -359 646 -689 817 -126 66 -142 71 -301 116 l-130 36 -3250 2 c-1787 1
-3281 -2 -3320 -6z m3349 -1165 c6 -11 11 -21 11 -22 0 -1 41 -7 90 -13 67 -8
94 -16 105 -30 11 -13 39 -22 100 -31 57 -8 92 -18 106 -31 15 -13 51 -23 124
-34 78 -10 106 -18 116 -33 9 -13 36 -22 91 -30 43 -7 97 -21 119 -32 23 -11
71 -24 105 -30 70 -10 116 -25 139 -45 9 -7 58 -20 109 -28 51 -9 107 -24 124
-35 18 -10 57 -22 87 -26 73 -9 117 -23 123 -40 4 -8 29 -16 64 -20 129 -13
144 -17 163 -38 15 -16 35 -22 82 -25 71 -4 115 -17 140 -42 10 -11 41 -20 90
-24 50 -5 86 -15 117 -33 28 -17 64 -27 105 -30 41 -3 80 -15 119 -35 46 -23
76 -31 139 -36 55 -3 86 -10 97 -21 26 -26 69 -41 116 -41 51 0 93 -16 115
-42 13 -15 35 -20 110 -25 85 -4 97 -8 116 -30 17 -20 33 -26 96 -32 58 -5 85
-13 115 -34 36 -25 47 -27 134 -27 125 -1 174 -11 204 -44 13 -14 33 -26 45
-26 14 0 24 -10 31 -30 7 -19 18 -30 30 -30 23 0 39 -29 39 -72 0 -40 -7 -50
-42 -65 -15 -7 -28 -21 -30 -35 -2 -16 -12 -24 -36 -29 -18 -4 -43 -18 -57
-33 -23 -24 -30 -26 -117 -26 -100 -1 -177 -12 -187 -27 -14 -22 -58 -35 -133
-40 -65 -5 -81 -10 -93 -27 -8 -11 -30 -27 -48 -36 l-32 -15 0 -795 0 -795 32
-9 c17 -5 36 -20 42 -33 6 -13 17 -23 25 -23 9 0 31 -7 50 -17 29 -13 37 -24
46 -64 8 -32 18 -50 30 -54 22 -7 25 -15 41 -118 19 -124 -10 -287 -52 -287
-5 0 -14 -21 -20 -47 -11 -42 -16 -48 -61 -66 -26 -12 -51 -29 -54 -40 -3 -10
-19 -23 -35 -29 -18 -6 -29 -17 -29 -29 0 -10 4 -19 8 -19 30 0 43 -29 52
-117 5 -51 17 -111 25 -135 9 -24 22 -113 31 -198 9 -104 19 -158 28 -165 21
-16 25 -41 35 -229 7 -124 14 -185 24 -200 20 -29 34 -111 42 -229 4 -71 11
-110 26 -140 16 -31 22 -66 26 -141 2 -56 0 -107 -5 -114 -5 -7 -31 -16 -58
-20 -40 -6 -49 -11 -54 -32 l-6 -25 -316 -3 -317 -2 -13 27 c-10 21 -23 29
-56 36 -33 6 -45 14 -53 33 -15 42 -10 107 12 148 17 32 22 69 31 205 6 98 15
174 22 186 24 38 36 90 51 229 8 76 20 155 25 175 5 20 13 53 19 75 5 21 12
77 16 125 9 120 24 202 41 229 9 13 18 56 20 95 7 103 11 114 38 121 19 5 24
14 29 48 6 47 -3 65 -36 70 -12 2 -26 13 -31 24 -6 13 -26 27 -47 33 -30 9
-44 22 -69 66 -17 30 -40 57 -50 60 -26 8 -34 54 -34 200 0 146 8 192 34 200
10 3 32 30 49 59 25 44 38 57 76 71 25 10 45 24 45 32 0 8 13 20 29 26 20 7
31 20 35 40 3 16 6 357 6 757 0 814 5 757 -72 747 -30 -4 -48 -13 -61 -31 -17
-24 -25 -26 -86 -26 -122 0 -156 -8 -168 -41 l-11 -29 -99 0 c-117 0 -136 -4
-148 -33 -9 -19 -20 -23 -93 -27 -81 -5 -101 -14 -102 -47 0 -6 -13 -16 -30
-22 -37 -13 -39 -39 -5 -71 15 -14 28 -40 32 -64 3 -23 16 -49 30 -62 15 -14
25 -38 30 -69 3 -27 16 -59 30 -75 13 -16 31 -53 39 -82 9 -29 24 -62 34 -73
11 -11 22 -40 26 -63 4 -24 17 -59 30 -78 14 -19 28 -63 34 -102 6 -37 23 -92
38 -122 26 -54 26 -61 32 -315 6 -248 13 -303 39 -320 29 -17 -14 -48 -83 -58
-21 -4 -49 -16 -61 -27 -15 -14 -45 -24 -86 -30 -45 -6 -68 -15 -79 -29 -11
-16 -35 -23 -95 -31 -58 -8 -85 -16 -97 -31 -10 -12 -44 -25 -95 -35 -43 -9
-82 -21 -88 -28 -12 -15 -63 -32 -124 -40 -24 -4 -55 -15 -68 -26 -13 -10 -58
-26 -99 -35 -40 -10 -84 -25 -98 -36 -13 -10 -56 -24 -97 -30 -55 -9 -80 -18
-97 -35 -13 -13 -26 -24 -30 -24 -4 0 -36 -5 -72 -11 -45 -7 -70 -16 -81 -30
-12 -16 -33 -23 -95 -30 -61 -6 -83 -13 -96 -29 -12 -14 -37 -24 -80 -31 -35
-5 -76 -19 -91 -30 -16 -11 -58 -25 -95 -31 -37 -6 -71 -16 -77 -22 -17 -18
-82 -45 -128 -52 -23 -4 -64 -18 -92 -32 -40 -20 -69 -26 -157 -30 -104 -5
-109 -4 -145 21 -21 14 -69 33 -108 42 -44 10 -76 23 -85 36 -11 14 -36 23
-85 30 -39 6 -82 19 -97 30 -15 10 -58 26 -95 35 -37 8 -77 24 -88 34 -11 11
-40 22 -65 25 -99 13 -111 17 -130 37 -14 15 -38 24 -81 29 -42 5 -68 14 -85
29 -15 15 -48 28 -96 37 -39 7 -79 19 -87 26 -26 21 -63 35 -111 43 -25 3 -67
19 -95 34 -27 16 -74 31 -102 35 -29 4 -64 16 -77 26 -14 11 -51 24 -83 30
-82 14 -93 19 -93 34 0 20 -6 22 -95 34 -61 9 -84 16 -96 32 -11 15 -32 23
-75 28 -42 5 -67 14 -82 29 -12 12 -34 24 -49 27 -85 18 -101 25 -108 53 -26
94 -30 184 -18 358 14 207 18 233 43 288 11 23 24 70 29 106 6 35 20 77 30 91
11 15 25 55 30 90 9 56 22 78 43 79 4 0 10 23 14 50 4 33 18 66 40 98 19 26
34 53 34 61 0 7 13 32 28 55 16 23 32 55 36 71 4 15 20 44 37 64 40 48 39 87
-1 96 -20 4 -36 17 -45 36 -15 28 -17 29 -95 29 -72 0 -80 2 -91 23 -18 34
-27 37 -134 37 -107 0 -119 4 -129 36 -8 26 -46 34 -159 34 -73 0 -78 1 -89
25 -13 29 -28 34 -122 37 -66 3 -70 5 -86 33 -17 30 -17 30 -126 35 -107 5
-109 6 -122 33 -12 25 -17 27 -80 27 -86 0 -112 8 -122 35 -10 26 -49 35 -162
35 -74 0 -77 1 -90 28 -13 26 -17 27 -93 30 -82 3 -105 12 -105 42 0 11 -12
22 -31 29 -29 10 -30 12 -27 63 3 46 7 55 29 65 15 8 30 25 34 40 3 15 21 41
40 58 27 26 44 33 96 39 39 4 66 12 71 21 10 17 70 35 119 35 43 0 100 18 114
37 6 7 50 17 105 23 71 8 100 16 116 31 14 14 49 25 107 34 47 8 104 23 126
34 22 12 73 26 113 31 79 11 134 27 158 46 8 6 53 17 100 24 52 7 96 20 113
32 19 13 63 25 129 34 58 8 105 20 112 28 15 19 71 36 117 36 44 0 88 15 103
35 7 10 45 18 114 25 79 8 110 16 137 34 23 16 57 26 102 31 41 4 84 16 108
30 28 16 64 25 123 30 50 4 88 13 97 21 23 23 75 41 154 53 41 7 88 18 105 25
74 32 89 36 124 36 45 0 103 20 125 42 12 11 43 18 104 23 68 5 96 12 123 30
24 16 62 27 120 35 58 8 90 17 102 30 17 18 35 22 146 36 44 5 55 10 63 30 8
24 12 25 90 22 70 -3 84 -6 93 -23z"/>
<path d="M4370 6059 c-64 -7 -111 -18 -145 -34 -27 -13 -84 -29 -125 -35 -54
-8 -79 -16 -90 -30 -11 -15 -32 -21 -80 -25 -125 -11 -151 -16 -168 -35 -13
-14 -43 -22 -109 -31 -72 -9 -94 -15 -98 -29 -6 -20 -83 -40 -152 -40 -31 0
-60 -8 -89 -25 -27 -16 -71 -29 -121 -36 -43 -6 -100 -21 -128 -34 -27 -13
-86 -28 -130 -35 -44 -7 -87 -18 -95 -24 -24 -21 -50 -28 -145 -42 -60 -8 -93
-18 -101 -29 -15 -20 -71 -34 -136 -35 -48 0 -90 -13 -119 -37 -12 -10 -122
-32 -166 -33 -7 0 -21 -9 -32 -21 -15 -17 -39 -22 -127 -31 -93 -9 -112 -13
-129 -33 -16 -18 -39 -25 -105 -35 -51 -7 -100 -21 -125 -35 -22 -13 -66 -29
-98 -36 -32 -7 -60 -16 -62 -20 -10 -15 24 -29 96 -40 40 -7 91 -21 112 -31
21 -11 75 -26 120 -34 45 -7 94 -23 108 -33 18 -13 56 -23 119 -30 71 -8 97
-15 111 -30 11 -11 36 -23 56 -26 128 -20 164 -29 171 -41 4 -8 47 -19 106
-28 55 -8 102 -19 105 -25 10 -16 51 -28 144 -41 63 -9 90 -17 96 -29 10 -17
68 -35 155 -46 27 -4 72 -17 100 -30 28 -12 82 -26 119 -30 51 -5 74 -13 93
-30 18 -17 42 -25 87 -29 143 -15 157 -18 167 -36 7 -13 31 -21 92 -30 55 -8
90 -18 103 -31 15 -13 51 -23 130 -33 62 -8 111 -19 113 -26 6 -16 41 -28 116
-40 35 -5 84 -19 108 -30 25 -11 74 -24 109 -30 35 -5 88 -14 118 -20 53 -9
84 -6 271 32 30 6 64 16 75 24 11 7 52 18 90 24 100 15 112 18 130 37 19 18
84 32 162 32 37 1 57 6 70 20 22 22 69 37 143 45 32 3 66 14 83 26 20 15 53
24 111 30 119 12 156 21 156 35 0 17 13 21 113 35 43 6 93 20 110 30 18 10 57
22 87 25 66 7 129 24 150 40 22 17 69 33 120 40 60 9 80 15 80 25 0 20 -74 30
-224 30 -168 0 -436 22 -496 40 -19 6 -150 15 -290 21 -353 13 -518 25 -565
42 -22 8 -96 17 -165 21 -163 9 -191 14 -197 37 -3 10 -18 22 -34 28 -28 9
-29 13 -29 70 0 72 6 91 31 91 10 0 23 8 28 19 6 10 21 21 34 25 13 3 29 17
35 32 l12 26 123 -6 c151 -6 229 -15 243 -27 7 -5 149 -16 317 -24 303 -14
465 -28 522 -45 17 -5 152 -14 300 -20 311 -13 502 -25 630 -39 220 -25 666
-36 728 -18 50 14 23 31 -84 52 -57 11 -115 28 -129 37 -14 8 -63 23 -110 32
-57 11 -90 23 -100 36 -12 15 -37 21 -119 29 -82 8 -108 14 -125 30 -16 15
-45 24 -96 30 -47 6 -83 17 -102 31 -24 17 -133 39 -200 40 -4 0 -16 9 -26 21
-14 14 -43 24 -100 33 -44 7 -98 23 -121 34 -23 12 -74 27 -114 32 -39 6 -94
22 -122 35 -27 13 -86 29 -130 36 -52 8 -88 19 -102 31 -15 14 -49 24 -110 32
-60 8 -98 19 -118 34 -20 14 -58 25 -110 32 -59 8 -84 15 -95 30 -12 16 -35
22 -113 30 -90 9 -119 18 -157 46 -8 6 -40 15 -70 18 -30 4 -75 18 -100 30
-43 22 -90 30 -235 40 -27 2 -93 0 -145 -5z"/>
<path d="M6065 4503 c-11 -3 -30 -16 -43 -29 -19 -21 -33 -24 -90 -25 -81 -1
-99 -7 -115 -39 -12 -24 -18 -25 -126 -30 -71 -3 -116 -9 -118 -16 -12 -35
-31 -45 -88 -48 -33 -2 -72 -4 -87 -5 -19 -1 -29 -9 -37 -31 l-10 -30 -115 0
-115 0 -13 -27 c-13 -27 -16 -28 -123 -34 -61 -4 -113 -7 -116 -8 -3 0 -11
-12 -17 -26 -11 -24 -16 -25 -92 -25 -76 0 -80 -1 -97 -27 -10 -16 -22 -31
-28 -35 -5 -4 -57 -8 -115 -8 -104 0 -105 0 -130 30 -23 27 -32 30 -105 36
-69 5 -83 10 -101 31 -20 23 -30 25 -129 31 -95 4 -108 7 -113 24 -7 29 -43
38 -142 38 -101 0 -120 5 -120 30 0 26 -6 28 -99 36 -62 5 -85 11 -95 25 -20
28 -61 39 -152 39 -83 0 -85 1 -102 29 -18 31 -48 41 -133 41 -33 0 -51 6 -64
20 -13 14 -31 20 -61 20 -47 0 -55 -7 -64 -59 -3 -24 -13 -39 -29 -48 -29 -14
-36 -26 -45 -76 -4 -22 -14 -41 -24 -44 -22 -8 -32 -23 -32 -50 0 -12 -11 -30
-25 -40 -20 -14 -28 -32 -36 -83 -7 -50 -15 -69 -34 -83 -17 -12 -27 -35 -35
-75 -7 -31 -19 -62 -27 -69 -9 -7 -22 -45 -30 -84 -7 -40 -24 -95 -38 -123
-21 -44 -26 -72 -32 -192 -5 -77 -7 -148 -5 -156 2 -9 18 -23 36 -32 18 -9 38
-22 45 -30 6 -7 37 -17 68 -21 31 -4 81 -20 110 -35 29 -16 79 -34 111 -40 31
-7 68 -20 82 -30 14 -10 52 -23 84 -31 32 -7 73 -23 91 -34 19 -13 61 -27 104
-33 48 -7 81 -18 95 -31 11 -10 48 -24 80 -30 33 -6 69 -20 81 -31 14 -13 47
-23 98 -31 57 -8 80 -16 87 -30 7 -12 35 -23 85 -34 41 -9 85 -25 97 -35 13
-9 43 -21 68 -25 63 -10 113 -27 127 -44 7 -7 45 -20 85 -28 40 -7 88 -24 108
-37 19 -14 58 -27 87 -31 30 -4 69 -18 89 -31 53 -36 141 -37 182 -2 23 19 48
28 94 33 40 4 71 14 83 26 12 10 52 26 90 35 39 9 97 29 130 44 33 16 82 31
109 35 27 4 66 17 86 30 20 13 62 26 93 30 31 4 62 14 68 22 21 24 49 35 116
43 43 6 72 15 86 28 14 13 48 25 92 32 46 8 75 19 85 31 11 13 39 22 98 30 61
9 89 18 107 35 13 12 43 25 67 29 50 7 97 23 118 40 8 7 48 20 89 30 41 9 91
27 110 40 20 13 57 25 82 28 83 11 97 20 105 74 4 26 4 107 0 181 -5 116 -9
139 -30 175 -16 28 -26 66 -31 115 -6 62 -11 75 -31 89 -14 9 -28 32 -34 57
-6 22 -24 68 -40 100 -17 32 -30 68 -30 78 0 11 -13 37 -28 57 -16 20 -34 62
-42 93 -8 36 -19 60 -29 63 -10 3 -21 20 -26 37 -7 22 -18 34 -35 38 -22 5
-25 12 -28 55 -5 70 -18 82 -77 68z"/>
<path d="M7430 2944 c-14 -37 -12 -76 6 -102 12 -17 25 -22 58 -22 53 0 76 22
76 74 0 63 -13 76 -76 76 -49 0 -55 -2 -64 -26z"/>
<path d="M7478 1358 c-21 -24 -38 -50 -38 -58 0 -8 -5 -82 -10 -164 -7 -108
-7 -153 1 -163 14 -16 99 -17 134 -1 29 13 30 21 11 74 -7 22 -16 93 -20 159
-8 133 -17 187 -31 192 -6 1 -27 -16 -47 -39z"/>
</g>
</svg>
